M48
;Layer_Color=9474304
;FILE_FORMAT=2:5
INCH,TZ
;TYPE=PLATED
T1F00S00C0.005906
T2F00S00C0.081102
%
T01
X22000Y3100
X22000Y5500
X22000Y7900
X22000Y10200
X22000Y12600
X22000Y15000
X22000Y17300
X22000Y19700
X22000Y22000
X22000Y24400
X22000Y26800
X22000Y29100
X22000Y31500
X22000Y33900
X22000Y36200
X22000Y38600
X22000Y40900
X22000Y43300
X22000Y45700
X22000Y48000
X22000Y50400
X22000Y52800
X22000Y55100
X22000Y57500
X22000Y59800
X22000Y62200
X22000Y64600
X22000Y66900
X22000Y69300
X22000Y71700
X22000Y74000
X22000Y76400
X22000Y78700
X22000Y81100
X22000Y83500
X22000Y85800
X22000Y88200
X22000Y90600
X22000Y92900
X22000Y95300
X22000Y97600
X28000Y3100
X28000Y5500
X28000Y7900
X28000Y10200
X28000Y12600
X28000Y15000
X28000Y17300
X28000Y19700
X28000Y22000
X28000Y24400
X28000Y26800
X28000Y29100
X28000Y31500
X28000Y33900
X28000Y36200
X28000Y38600
X28000Y40900
X28000Y43300
X28000Y45700
X28000Y48000
X28000Y50400
X28000Y52800
X28000Y55100
X28000Y57500
X28000Y59800
X28000Y62200
X28000Y64600
X28000Y66900
X28000Y69300
X28000Y71700
X28000Y74000
X28000Y76400
X28000Y78700
X28000Y81100
X28000Y83500
X28000Y85800
X28000Y88200
X28000Y90600
X28000Y92900
X28000Y95300
X28000Y97600
T02
X6200Y11000
X43800Y11000
X6200Y89000
X43800Y89000
M30