G04*
G04*
G04 Layer_Physical_Order=1*
G04 Layer_Color=255*
%FSLAX25Y25*%
%MOIN*%
%SFA3.937B3.937*%
G70*
G04*
G04*
G04*
G04 #@! TF.FilePolarity,Positive*
G04*
G01*
G75*
%ADD12C,0.00050*%
%ADD13C,0.08268*%
%ADD14C,0.00787*%
G36*
X0Y0D02*
X0Y0D01*
X0Y25400D01*
X-6605Y25400D01*
X-6605Y19700D01*
X-6439Y17700D01*
X-6439Y7700D01*
X-6605Y5700D01*
X-6605Y0D01*
X0Y0D01*
G37*
G36*
X-12600Y0D02*
X-12600Y0D01*
X-12600Y25400D01*
X-5995Y25400D01*
X-5995Y19700D01*
X-6160Y17700D01*
X-6160Y7700D01*
X-5995Y5700D01*
X-5995Y0D01*
X-12600Y0D01*
G37*
G36*
X-6425Y0D02*
X-6425Y0D01*
X-6425Y1270D01*
X-6439Y1270D01*
X-6439Y5700D01*
X-6338Y7700D01*
X-6338Y12700D01*
X-6300Y12700D01*
X-6300Y0D01*
X-6425Y0D01*
G37*
G36*
X-6175Y0D02*
X-6175Y0D01*
X-6175Y1270D01*
X-6160Y1270D01*
X-6160Y5700D01*
X-6261Y7700D01*
X-6261Y12700D01*
X-6300Y12700D01*
X-6300Y0D01*
X-6175Y0D01*
G37*
G36*
X-6425Y25400D02*
X-6425Y25400D01*
X-6425Y24130D01*
X-6439Y24130D01*
X-6439Y19700D01*
X-6338Y17700D01*
X-6338Y12700D01*
X-6300Y12700D01*
X-6300Y25400D01*
X-6425Y25400D01*
G37*
G36*
X-6175Y25400D02*
X-6175Y25400D01*
X-6175Y24130D01*
X-6160Y24130D01*
X-6160Y19700D01*
X-6261Y17700D01*
X-6261Y12700D01*
X-6300Y12700D01*
X-6300Y25400D01*
X-6175Y25400D01*
G37*
M02*