M48
;Layer_Color=9474304
;FILE_FORMAT=2:5
INCH,TZ
;TYPE=PLATED
T1F00S00C0.005906
T2F00S00C0.081102
%
T01
X-27800Y3100
X-27800Y5500
X-27800Y7900
X-27800Y10200
X-27800Y12600
X-27800Y15000
X-27800Y17300
X-27800Y19700
X-27800Y22000
X-27800Y24400
X-27800Y26800
X-27800Y29100
X-27800Y31500
X-27800Y33900
X-27800Y36200
X-27800Y38600
X-27800Y40900
X-27800Y43300
X-27800Y45700
X-27800Y48000
X-27800Y50400
X-27800Y52800
X-27800Y55100
X-27800Y57500
X-27800Y59800
X-27800Y62200
X-27800Y64600
X-27800Y66900
X-27800Y69300
X-27800Y71700
X-27800Y74000
X-27800Y76400
X-27800Y78700
X-27800Y81100
X-27800Y83500
X-27800Y85800
X-27800Y88200
X-27800Y90600
X-27800Y92900
X-27800Y95300
X-27800Y97600
X-21900Y3100
X-21900Y5500
X-21900Y7900
X-21900Y10200
X-21900Y12600
X-21900Y15000
X-21900Y17300
X-21900Y19700
X-21900Y22000
X-21900Y24400
X-21900Y26800
X-21900Y29100
X-21900Y31500
X-21900Y33900
X-21900Y36200
X-21900Y38600
X-21900Y40900
X-21900Y43300
X-21900Y45700
X-21900Y48000
X-21900Y50400
X-21900Y52800
X-21900Y55100
X-21900Y57500
X-21900Y59800
X-21900Y62200
X-21900Y64600
X-21900Y66900
X-21900Y69300
X-21900Y71700
X-21900Y74000
X-21900Y76400
X-21900Y78700
X-21900Y81100
X-21900Y83500
X-21900Y85800
X-21900Y88200
X-21900Y90600
X-21900Y92900
X-21900Y95300
X-21900Y97600
T02
X-43600Y11000
X-6000Y11000
X-43600Y89000
X-6000Y89000
M30