M48
;Layer_Color=9474304
;FILE_FORMAT=2:5
INCH,TZ
;TYPE=PLATED
T1F00S00C0.001500
T2F00S00C0.020600
%
T01
X5600Y800
X5600Y1400
X5600Y2000
X5600Y2600
X5600Y3200
X5600Y3800
X5600Y4400
X5600Y5000
X5600Y5600
X5600Y6200
X5600Y6800
X5600Y7400
X5600Y8000
X5600Y8600
X5600Y9200
X5600Y9800
X5600Y10400
X5600Y11000
X5600Y11600
X5600Y12200
X5600Y12800
X5600Y13400
X5600Y14000
X5600Y14600
X5600Y15200
X5600Y15800
X5600Y16400
X5600Y17000
X5600Y17600
X5600Y18200
X5600Y18800
X5600Y19400
X5600Y20000
X5600Y20600
X5600Y21200
X5600Y21800
X5600Y22400
X5600Y23000
X5600Y23600
X5600Y24200
X5600Y24800
X7100Y800
X7100Y1400
X7100Y2000
X7100Y2600
X7100Y3200
X7100Y3800
X7100Y4400
X7100Y5000
X7100Y5600
X7100Y6200
X7100Y6800
X7100Y7400
X7100Y8000
X7100Y8600
X7100Y9200
X7100Y9800
X7100Y10400
X7100Y11000
X7100Y11600
X7100Y12200
X7100Y12800
X7100Y13400
X7100Y14000
X7100Y14600
X7100Y15200
X7100Y15800
X7100Y16400
X7100Y17000
X7100Y17600
X7100Y18200
X7100Y18800
X7100Y19400
X7100Y20000
X7100Y20600
X7100Y21200
X7100Y21800
X7100Y22400
X7100Y23000
X7100Y23600
X7100Y24200
X7100Y24800
T02
X1600Y2800
X11100Y2800
X1600Y22600
X11100Y22600
M30