M48
;Layer_Color=9474304
;FILE_FORMAT=2:5
INCH,TZ
;TYPE=PLATED
T1F00S00C0.005906
T2F00S00C0.081102
%
T01
X24300Y4000
X24300Y4600
X24300Y5200
X24300Y5800
X24300Y6400
X24300Y7000
X24300Y7600
X24300Y8200
X24300Y8800
X24300Y9400
X24300Y10000
X24300Y10600
X24300Y11200
X24300Y11800
X24300Y12400
X24300Y13000
X24300Y13600
X24300Y14200
X24300Y14800
X24300Y15400
X24300Y16000
X24300Y16600
X24300Y17200
X24300Y17800
X24300Y18400
X24300Y19000
X24300Y19600
X24300Y20200
X24300Y20800
X24300Y21400
X24300Y22000
X24300Y22600
X24300Y23200
X24300Y23800
X24300Y24400
X24300Y25000
X24300Y25600
X24300Y26200
X24300Y26800
X24300Y27400
X24300Y28000
X24300Y28600
X24300Y29200
X24300Y29800
X24300Y30400
X24300Y31000
X24300Y31600
X24300Y32200
X24300Y32800
X24300Y33400
X24300Y34000
X24300Y34600
X24300Y35200
X24300Y35800
X24300Y36400
X24300Y37000
X24300Y37600
X24300Y38200
X24300Y38800
X24300Y39400
X24300Y40000
X24300Y40600
X24300Y41200
X24300Y41800
X24300Y42400
X24300Y43000
X24300Y43600
X24300Y44200
X24300Y44800
X24300Y45400
X24300Y46000
X24300Y46600
X24300Y47200
X24300Y47800
X24300Y48400
X24300Y49000
X24300Y49600
X24300Y50200
X24300Y50800
X24300Y51400
X24300Y52000
X24300Y52600
X24300Y53200
X24300Y53800
X24300Y54400
X24300Y55000
X24300Y55600
X24300Y56200
X24300Y56800
X24300Y57400
X24300Y58000
X24300Y58600
X24300Y59200
X24300Y59800
X24300Y60400
X24300Y61000
X24300Y61600
X24300Y62200
X24300Y62800
X24300Y63400
X24300Y64000
X24300Y64600
X24300Y65200
X24300Y65800
X24300Y66400
X24300Y67000
X24300Y67600
X24300Y68200
X24300Y68800
X24300Y69400
X24300Y70000
X24300Y70600
X24300Y71200
X24300Y71800
X24300Y72400
X24300Y73000
X24300Y73600
X24300Y74200
X24300Y74800
X24300Y75400
X24300Y76000
X24300Y76600
X24300Y77200
X24300Y77800
X24300Y78400
X24300Y79000
X24300Y79600
X24300Y80200
X24300Y80800
X24300Y81400
X24300Y82000
X24300Y82600
X24300Y83200
X24300Y83800
X24300Y84400
X24300Y85000
X24300Y85600
X24300Y86200
X24300Y86800
X24300Y87400
X24300Y88000
X24300Y88600
X24300Y89200
X24300Y89800
X24300Y90400
X24300Y91000
X24300Y91600
X24300Y92200
X24300Y92800
X24300Y93400
X24300Y94000
X24300Y94600
X24300Y95200
X24300Y95800
X24300Y96400
X24300Y97000
X24300Y97600
X24300Y98200
X24300Y98800
X24300Y99400
X25700Y4000
X25700Y4600
X25700Y5200
X25700Y5800
X25700Y6400
X25700Y7000
X25700Y7600
X25700Y8200
X25700Y8800
X25700Y9400
X25700Y10000
X25700Y10600
X25700Y11200
X25700Y11800
X25700Y12400
X25700Y13000
X25700Y13600
X25700Y14200
X25700Y14800
X25700Y15400
X25700Y16000
X25700Y16600
X25700Y17200
X25700Y17800
X25700Y18400
X25700Y19000
X25700Y19600
X25700Y20200
X25700Y20800
X25700Y21400
X25700Y22000
X25700Y22600
X25700Y23200
X25700Y23800
X25700Y24400
X25700Y25000
X25700Y25600
X25700Y26200
X25700Y26800
X25700Y27400
X25700Y28000
X25700Y28600
X25700Y29200
X25700Y29800
X25700Y30400
X25700Y31000
X25700Y31600
X25700Y32200
X25700Y32800
X25700Y33400
X25700Y34000
X25700Y34600
X25700Y35200
X25700Y35800
X25700Y36400
X25700Y37000
X25700Y37600
X25700Y38200
X25700Y38800
X25700Y39400
X25700Y40000
X25700Y40600
X25700Y41200
X25700Y41800
X25700Y42400
X25700Y43000
X25700Y43600
X25700Y44200
X25700Y44800
X25700Y45400
X25700Y46000
X25700Y46600
X25700Y47200
X25700Y47800
X25700Y48400
X25700Y49000
X25700Y49600
X25700Y50200
X25700Y50800
X25700Y51400
X25700Y52000
X25700Y52600
X25700Y53200
X25700Y53800
X25700Y54400
X25700Y55000
X25700Y55600
X25700Y56200
X25700Y56800
X25700Y57400
X25700Y58000
X25700Y58600
X25700Y59200
X25700Y59800
X25700Y60400
X25700Y61000
X25700Y61600
X25700Y62200
X25700Y62800
X25700Y63400
X25700Y64000
X25700Y64600
X25700Y65200
X25700Y65800
X25700Y66400
X25700Y67000
X25700Y67600
X25700Y68200
X25700Y68800
X25700Y69400
X25700Y70000
X25700Y70600
X25700Y71200
X25700Y71800
X25700Y72400
X25700Y73000
X25700Y73600
X25700Y74200
X25700Y74800
X25700Y75400
X25700Y76000
X25700Y76600
X25700Y77200
X25700Y77800
X25700Y78400
X25700Y79000
X25700Y79600
X25700Y80200
X25700Y80800
X25700Y81400
X25700Y82000
X25700Y82600
X25700Y83200
X25700Y83800
X25700Y84400
X25700Y85000
X25700Y85600
X25700Y86200
X25700Y86800
X25700Y87400
X25700Y88000
X25700Y88600
X25700Y89200
X25700Y89800
X25700Y90400
X25700Y91000
X25700Y91600
X25700Y92200
X25700Y92800
X25700Y93400
X25700Y94000
X25700Y94600
X25700Y95200
X25700Y95800
X25700Y96400
X25700Y97000
X25700Y97600
X25700Y98200
X25700Y98800
X25700Y99400
T02
X6200Y11000
X43800Y11000
X6200Y89000
X43800Y89000
M30