G04*
G04*
G04 Layer_Physical_Order=1*
G04 Layer_Color=255*
%FSLAX25Y25*%
%MOIN*%
%SFA3.937B3.937*%
G70*
G04*
G04*
G04*
G04 #@! TF.FilePolarity,Positive*
G04*
G01*
G75*
%ADD12C,0.00050*%
%ADD13C,0.08268*%
%ADD14C,0.00787*%
G36*
X0Y0D02*
X0Y0D01*
X0Y100000D01*
X23799Y100000D01*
X23799Y77559D01*
X24450Y69685D01*
X24450Y30314D01*
X23799Y22440D01*
X23799Y0D01*
X0Y0D01*
G37*
G36*
X50000Y0D02*
X50000Y0D01*
X50000Y100000D01*
X26200Y100000D01*
X26200Y77559D01*
X25550Y69685D01*
X25550Y30314D01*
X26200Y22440D01*
X26200Y0D01*
X50000Y0D01*
G37*
G36*
X24507Y0D02*
X24507Y0D01*
X24507Y5000D01*
X24450Y5000D01*
X24450Y22440D01*
X24850Y30314D01*
X24850Y50000D01*
X25000Y50000D01*
X25000Y0D01*
X24507Y0D01*
G37*
G36*
X25492Y0D02*
X25492Y0D01*
X25492Y5000D01*
X25550Y5000D01*
X25550Y22440D01*
X25150Y30314D01*
X25150Y50000D01*
X25000Y50000D01*
X25000Y0D01*
X25492Y0D01*
G37*
G36*
X24507Y100000D02*
X24507Y100000D01*
X24507Y95000D01*
X24450Y95000D01*
X24450Y77559D01*
X24850Y69685D01*
X24850Y50000D01*
X25000Y50000D01*
X25000Y100000D01*
X24507Y100000D01*
G37*
G36*
X25492Y100000D02*
X25492Y100000D01*
X25492Y95000D01*
X25550Y95000D01*
X25550Y77559D01*
X25150Y69685D01*
X25150Y50000D01*
X25000Y50000D01*
X25000Y100000D01*
X25492Y100000D01*
G37*
M02*